# xmcd
#
# Track frame offsets:
#	183
#	12370
#	26100
#	41113
#	53398
#	64283
#	74865
#	86748
#	96215
#	107703
#	120890
#	133340
#	143100
#	154648
#	166180
#	180973
#
# Disc length: 2574 seconds
# Revision: 0
# Processed by: cddbd v1.5.2PL0 Copyright (c) Steve Scherf et al.
# Submitted via: dBpowerAMP V12.0
#
DISCID=d90a0c10
DTITLE=Various Artist - Gentlemen of Country and Western Vol. 2
DYEAR=2003
DGENRE=Country
TTITLE0=Oak Ridge Boys - Without God
TTITLE1=Willie Nelson - Home Is Where You're Happy
TTITLE2=Kenny Rogers - For the Good Times
TTITLE3=George Jones - Blue Side of Lonesome
TTITLE4=Johnny Cash - I Love You Because
TTITLE5=The Everly Brothers - All I Have to Do Is Dream
TTITLE6=Don Williams - Follow Me Back to Louisville
TTITLE7=Waylon Jennings - Building Heartaches
TTITLE8=Kenny Rogers - Poem for My Little Lady
TTITLE9=Willie Nelson - You'll Always Have Someone
TTITLE10=Don Williams - There's Never Been a Time
TTITLE11=Johnny Cash - Ballad of a Teenage Queen
TTITLE12=Freddy Fender - She's About a Mover
TTITLE13=Oak Ridge Boys - No One Cared So Much
TTITLE14=Willie Nelson - And So Will You My Love
TTITLE15=George Jones - She Think I Still Care
EXTD=
EXTT0=
EXTT1=
EXTT2=
EXTT3=
EXTT4=
EXTT5=
EXTT6=
EXTT7=
EXTT8=
EXTT9=
EXTT10=
EXTT11=
EXTT12=
EXTT13=
EXTT14=
EXTT15=
PLAYORDER=
